<?xml version="1.0" standalone="no"?>
<!DOCTYPE svg PUBLIC "-//W3C//DTD SVG 20010904//EN"
 "http://www.w3.org/TR/2001/REC-SVG-20010904/DTD/svg10.dtd">
<svg version="1.0" xmlns="http://www.w3.org/2000/svg"
 width="894.000000pt" height="298.000000pt" viewBox="0 0 894.000000 298.000000"
 preserveAspectRatio="xMidYMid meet">

<g transform="translate(0.000000,298.000000) scale(0.100000,-0.100000)"
fill="#000000" stroke="none">
<path d="M206 2478 c3 -40 9 -126 15 -190 5 -64 9 -252 9 -417 l0 -301 219 0
220 0 5 413 c3 226 8 447 12 490 l6 77 -246 0 -245 0 5 -72z"/>
<path d="M1565 2478 c3 -40 8 -261 11 -490 l5 -418 220 0 219 0 0 268 c0 255
13 548 29 660 l8 52 -249 0 -250 0 7 -72z"/>
<path d="M3518 2488 c3 -57 -7 -114 -39 -225 -14 -52 -26 -93 -48 -173 -35
-132 -53 -194 -61 -225 -49 -170 -79 -290 -74 -294 12 -12 40 19 45 50 6 31
47 187 70 267 15 53 26 93 48 172 49 181 61 227 82 298 6 20 13 50 16 65 5 25
27 46 38 36 2 -2 15 -49 30 -104 15 -55 31 -115 36 -132 17 -61 30 -108 39
-138 4 -16 18 -68 30 -115 11 -47 25 -93 30 -102 6 -10 10 -25 10 -35 0 -16
14 -66 31 -108 4 -11 15 -50 25 -87 l17 -68 235 0 234 0 -5 23 c-3 12 -10 39
-16 60 -6 20 -15 53 -21 72 -17 58 -27 96 -49 175 -48 177 -61 227 -80 293
-43 147 -64 227 -68 255 -3 18 -9 35 -14 38 -5 3 -9 18 -9 35 l0 29 -268 0
-268 0 4 -62z"/>
<path d="M4904 2513 c12 -74 25 -431 25 -685 l1 -258 220 0 220 0 2 473 3 472
105 3 c314 9 508 -84 579 -278 7 -19 17 -44 21 -55 32 -77 31 -401 -1 -421 -5
-3 -9 -15 -9 -26 0 -22 -50 -119 -78 -150 -14 -17 -5 -18 185 -18 l201 0 49
54 c94 103 128 209 121 377 -5 102 -39 239 -59 239 -5 0 -9 6 -9 13 0 16 -66
86 -115 123 -22 16 -42 31 -45 34 -20 22 -186 83 -285 104 -102 23 -231 29
-659 32 l-478 5 6 -38z"/>
<path d="M7007 2519 c10 -17 25 -38 33 -47 9 -9 30 -38 48 -64 18 -27 34 -48
36 -48 2 0 43 20 92 44 143 71 244 99 413 112 74 5 95 4 102 -7 5 -8 9 -222 9
-476 l0 -463 220 0 220 0 0 470 c0 426 2 471 16 477 23 9 226 -13 299 -32 70
-18 71 -18 198 -79 l98 -48 20 23 c11 13 30 39 41 59 12 19 25 37 28 40 3 3
16 20 29 38 l22 32 -971 0 -971 0 18 -31z"/>
<path d="M1201 1434 c0 -11 3 -14 6 -6 3 7 2 16 -1 19 -3 4 -6 -2 -5 -13z"/>
<path d="M1581 1390 c0 -44 3 -60 9 -49 5 9 5 36 1 65 l-9 49 -1 -65z"/>
<path d="M3607 1443 c-10 -9 -9 -113 1 -113 4 0 7 27 7 60 0 33 0 60 -1 60 0
0 -4 -3 -7 -7z"/>
<path d="M4020 1435 c0 -8 5 -15 10 -15 6 0 10 7 10 15 0 8 -4 15 -10 15 -5 0
-10 -7 -10 -15z"/>
<path d="M4676 1441 c-4 -7 -5 -15 -2 -18 9 -9 19 4 14 18 -4 11 -6 11 -12 0z"/>
<path d="M7258 1443 c6 -2 12 -11 12 -19 0 -9 5 -12 10 -9 19 12 10 35 -12 34
-13 0 -17 -3 -10 -6z"/>
<path d="M373 1360 c0 -66 1 -75 6 -42 4 23 4 61 0 85 -5 32 -6 23 -6 -43z"/>
<path d="M500 1414 c0 -14 -5 -34 -10 -45 -7 -12 -7 -19 -1 -19 5 0 12 -17 14
-37 2 -21 4 -1 5 45 1 45 0 82 -3 82 -3 0 -5 -12 -5 -26z"/>
<path d="M2233 1360 c0 -47 2 -66 4 -42 2 23 2 61 0 85 -2 23 -4 4 -4 -43z"/>
<path d="M2512 1358 c1 -66 2 -72 5 -28 5 70 15 79 47 47 18 -18 26 -21 26
-12 0 8 -3 15 -7 15 -5 0 -17 14 -28 30 -35 52 -45 39 -43 -52z"/>
<path d="M2640 1387 c0 -29 -5 -58 -12 -65 -9 -9 -8 -16 5 -29 16 -16 17 -13
17 65 0 45 -2 82 -5 82 -3 0 -5 -24 -5 -53z"/>
<path d="M3243 1425 c-3 -9 -3 -19 1 -22 3 -4 6 -1 6 5 0 7 7 12 16 12 8 0 12
5 9 10 -9 15 -25 12 -32 -5z"/>
<path d="M5020 1424 c-17 -19 -3 -47 26 -53 16 -3 15 0 -6 18 -21 17 -23 22
-10 30 8 6 12 13 9 16 -4 3 -12 -2 -19 -11z"/>
<path d="M6563 1360 c0 -47 2 -66 4 -42 2 23 2 61 0 85 -2 23 -4 4 -4 -43z"/>
<path d="M6890 1436 c0 -2 7 -9 15 -16 12 -10 15 -10 15 4 0 9 -7 16 -15 16
-8 0 -15 -2 -15 -4z"/>
<path d="M7593 1360 c0 -47 2 -66 4 -42 2 23 2 61 0 85 -2 23 -4 4 -4 -43z"/>
<path d="M8302 1358 l1 -83 6 65 c4 46 10 64 19 62 10 -2 10 2 2 18 -21 39
-30 20 -28 -62z"/>
<path d="M5380 1411 c0 -20 14 -34 43 -44 11 -4 16 -3 12 3 -3 6 -12 10 -20
10 -15 0 -28 27 -19 41 3 5 0 9 -5 9 -6 0 -11 -8 -11 -19z"/>
<path d="M4701 1404 c0 -11 3 -14 6 -6 3 7 2 16 -1 19 -3 4 -6 -2 -5 -13z"/>
<path d="M923 1365 c0 -27 2 -38 4 -22 2 15 2 37 0 50 -2 12 -4 0 -4 -28z"/>
<path d="M6163 1365 c0 -27 2 -38 4 -22 2 15 2 37 0 50 -2 12 -4 0 -4 -28z"/>
<path d="M773 1365 c0 -22 2 -30 4 -17 2 12 2 30 0 40 -3 9 -5 -1 -4 -23z"/>
<path d="M5742 1370 c-1 -19 5 -44 13 -54 8 -11 15 -15 15 -10 0 6 -4 14 -9
20 -5 5 -11 25 -14 44 l-4 35 -1 -35z"/>
<path d="M6931 1384 c0 -11 3 -14 6 -6 3 7 2 16 -1 19 -3 4 -6 -2 -5 -13z"/>
<path d="M7862 1370 c0 -19 2 -27 5 -17 2 9 2 25 0 35 -3 9 -5 1 -5 -18z"/>
<path d="M3221 1373 c0 -12 -5 -25 -11 -28 -5 -3 -10 -14 -10 -23 0 -15 1 -15
16 0 10 9 14 26 11 44 -3 21 -4 23 -6 7z"/>
<path d="M4721 1348 c-1 -16 4 -28 9 -28 12 0 12 8 0 35 -8 18 -9 17 -9 -7z"/>
<path d="M1200 1346 c0 -9 5 -16 10 -16 6 0 10 4 10 9 0 6 -4 13 -10 16 -5 3
-10 -1 -10 -9z"/>
<path d="M3297 1346 c-3 -8 1 -20 9 -26 11 -10 14 -9 14 8 0 25 -16 37 -23 18z"/>
<path d="M3681 1346 c-7 -8 -8 -17 -3 -20 6 -3 12 3 15 14 6 24 4 25 -12 6z"/>
<path d="M4621 1329 c-7 -17 -10 -33 -7 -36 3 -4 6 0 6 7 0 7 7 18 15 24 8 6
11 16 7 23 -5 8 -12 2 -21 -18z"/>
<path d="M5095 1350 c3 -5 8 -10 11 -10 2 0 4 5 4 10 0 6 -5 10 -11 10 -5 0
-7 -4 -4 -10z"/>
<path d="M5459 1351 c8 -5 12 -18 8 -30 -5 -22 8 -30 16 -8 6 16 -11 47 -26
47 -8 0 -7 -3 2 -9z"/>
<path d="M6846 1344 c-10 -25 -7 -34 9 -28 17 7 20 30 6 38 -5 3 -12 -1 -15
-10z"/>
<path d="M2601 1334 c0 -11 3 -14 6 -6 3 7 2 16 -1 19 -3 4 -6 -2 -5 -13z"/>
<path d="M6937 1344 c-8 -8 1 -24 14 -24 5 0 9 7 9 15 0 15 -12 20 -23 9z"/>
<path d="M8390 1332 c0 -4 9 -18 20 -32 l20 -25 0 26 c0 18 -6 28 -20 32 -11
3 -20 2 -20 -1z"/>
<path d="M7880 1321 c0 -6 4 -13 10 -16 6 -3 7 1 4 9 -7 18 -14 21 -14 7z"/>
<path d="M1581 1303 c-1 -22 3 -23 57 -21 l57 2 -52 3 c-38 3 -53 8 -56 21 -3
12 -5 11 -6 -5z"/>
<path d="M6180 1310 c0 -5 5 -10 11 -10 5 0 7 5 4 10 -3 6 -8 10 -11 10 -2 0
-4 -4 -4 -10z"/>
<path d="M3331 1294 c0 -11 3 -14 6 -6 3 7 2 16 -1 19 -3 4 -6 -2 -5 -13z"/>
<path d="M843 1283 c9 -2 23 -2 30 0 6 3 -1 5 -18 5 -16 0 -22 -2 -12 -5z"/>
<path d="M5053 1283 c9 -2 23 -2 30 0 6 3 -1 5 -18 5 -16 0 -22 -2 -12 -5z"/>
<path d="M5418 1283 c6 -2 18 -2 25 0 6 3 1 5 -13 5 -14 0 -19 -2 -12 -5z"/>
<path d="M5808 1283 c6 -2 18 -2 25 0 6 3 1 5 -13 5 -14 0 -19 -2 -12 -5z"/>
<path d="M6223 1283 c9 -2 23 -2 30 0 6 3 -1 5 -18 5 -16 0 -22 -2 -12 -5z"/>
<path d="M7933 1283 c9 -2 23 -2 30 0 6 3 -1 5 -18 5 -16 0 -22 -2 -12 -5z"/>
<path d="M230 942 c0 -109 -4 -245 -9 -303 -6 -57 -12 -141 -14 -187 l-5 -82
245 0 245 0 -6 83 c-4 45 -9 218 -12 385 l-6 302 -219 0 -219 0 0 -198z"/>
<path d="M1576 828 c-3 -172 -8 -346 -12 -385 l-6 -73 252 0 c144 0 249 4 246
9 -11 17 -36 437 -36 599 l0 162 -219 0 -219 0 -6 -312z"/>
<path d="M3165 1118 c-3 -13 -11 -39 -16 -58 -6 -19 -14 -48 -19 -65 -4 -16
-20 -75 -35 -130 -14 -55 -31 -116 -37 -135 -5 -19 -12 -50 -15 -68 -3 -18 -9
-35 -14 -38 -5 -3 -9 -16 -9 -30 0 -13 -4 -32 -9 -42 -5 -9 -22 -53 -39 -97
l-30 -80 30 -3 c41 -5 49 6 58 80 7 53 35 172 70 293 18 63 32 111 40 145 20
86 59 231 65 240 3 6 -3 10 -13 10 -12 0 -22 -9 -27 -22z"/>
<path d="M3970 1111 c0 -17 4 -32 9 -35 5 -3 11 -20 14 -38 4 -28 20 -89 78
-303 6 -22 15 -49 19 -60 5 -11 11 -33 15 -50 12 -56 35 -180 40 -217 l6 -38
259 0 c263 0 281 3 252 36 -8 8 -27 53 -72 169 -17 43 -87 293 -97 345 -2 14
-8 34 -13 45 -4 11 -13 38 -18 60 -6 22 -16 57 -22 78 l-12 37 -229 0 -229 0
0 -29z"/>
<path d="M4929 983 c-1 -169 -15 -501 -25 -570 l-6 -43 252 0 253 0 -7 41
c-13 82 -26 338 -26 532 l0 197 -220 0 -220 0 -1 -157z"/>
<path d="M5870 1131 c0 -5 9 -26 19 -48 31 -62 48 -105 62 -153 7 -25 16 -49
21 -55 4 -5 8 -16 8 -25 0 -37 93 -199 148 -256 50 -54 166 -134 193 -134 5 0
17 -4 27 -9 36 -18 69 -29 122 -40 74 -16 319 -41 403 -41 60 0 68 2 65 18 -2
12 -14 18 -43 20 -124 7 -225 66 -317 182 -25 32 -138 248 -138 264 0 20 -77
160 -120 219 l-50 67 -200 0 c-113 0 -200 -4 -200 -9z"/>
<path d="M7740 958 c0 -171 -13 -465 -25 -550 l-5 -38 247 0 248 0 -8 102 c-4
57 -10 230 -13 386 l-5 282 -220 0 -219 0 0 -182z"/>
</g>
</svg>
